<!-- This Source Code Form is subject to the terms of the Mozilla Public
   - License, v. 2.0. If a copy of the MPL was not distributed with this
   - file, You can obtain one at http://mozilla.org/MPL/2.0/. -->
<svg xmlns="http://www.w3.org/2000/svg" width="12" height="12" viewBox="0 0 12 12">
<style>
	:root {
		color-scheme: light dark;
	}
	g:target {
		fill-rule: evenodd;
	}
	g.theme:target {
		fill: transparent /* TO BE REPLACED WITH THEME COLOR */;
	}
	g.prefer-color-scheme:target {
		fill: rgb(91, 91, 102); /* https://searchfox.org/mozilla-central/rev/d6576544301cacc0e393fbc919c53e4e6b0d46ec/browser/themes/shared/browser-custom-colors.css#74 */
	}
	@media (prefers-color-scheme: dark) {
		g.prefer-color-scheme:target {
			fill: rgb(251, 251, 254); /* https://searchfox.org/mozilla-central/rev/d6576544301cacc0e393fbc919c53e4e6b0d46ec/browser/themes/shared/browser-custom-colors.css#74 */
		}
	}
	g:not(:target) {
		display: none;
	}
</style>
<symbol id="icon">
	<path d="M10.53 9.47L8.25 7.19 9.8 5.643a.694.694 0 0 0 0-.98 3.04 3.04 0 0 0-2.161-.894h-.122A1.673 1.673 0 0 1 5.846 2.1v-.408A.693.693 0 0 0 4.664 1.2L1.2 4.664a.693.693 0 0 0 .49 1.182h.41a1.672 1.672 0 0 1 1.669 1.671v.117a2.8 2.8 0 0 0 .925 2.192.693.693 0 0 0 .949-.026L7.19 8.251l2.28 2.28a.75.75 0 0 0 1.06-1.061z"></path>
</symbol>
<g id="toolbar-theme" class="theme">
	<use href="#icon"/>
</g>
<g id="default-theme" class="theme">
	<use href="#icon"/>
</g>
<g id="toolbar" class="prefer-color-scheme">
	<use href="#icon"/>
</g>
<g id="default" class="prefer-color-scheme">
	<use href="#icon"/>
</g>
</svg>
