<!-- This Source Code Form is subject to the terms of the Mozilla Public
   - License, v. 2.0. If a copy of the MPL was not distributed with this
   - file, You can obtain one at http://mozilla.org/MPL/2.0/. -->
<svg xmlns="http://www.w3.org/2000/svg" width="16" height="16" viewBox="0 0 16 16">
<style>
	:root {
		color-scheme: light dark;
	}
	g:target {
		fill-rule: evenodd;
	}
	g.theme:target {
		fill: transparent /* TO BE REPLACED WITH THEME COLOR */;
	}
	g.prefer-color-scheme:target {
		rgb(91, 91, 102); /* https://searchfox.org/mozilla-central/rev/d6576544301cacc0e393fbc919c53e4e6b0d46ec/browser/themes/shared/browser-custom-colors.css#74 */
	}
	@media (prefers-color-scheme: dark) {
		g.prefer-color-scheme:target {
			fill: rgb(251, 251, 254); /* https://searchfox.org/mozilla-central/rev/d6576544301cacc0e393fbc919c53e4e6b0d46ec/browser/themes/shared/browser-custom-colors.css#74 */
		}
	}
	g:not(:target) {
		display: none;
	}
</style>
<symbol id="icon">
	<path d="M14.707 13.293L11.414 10l2.293-2.293a1 1 0 0 0 0-1.414A4.384 4.384 0 0 0 10.586 5h-.172A2.415 2.415 0 0 1 8 2.586V2a1 1 0 0 0-1.707-.707l-5 5A1 1 0 0 0 2 8h.586A2.415 2.415 0 0 1 5 10.414v.169a4.036 4.036 0 0 0 1.337 3.166 1 1 0 0 0 1.37-.042L10 11.414l3.293 3.293a1 1 0 0 0 1.414-1.414zm-7.578-1.837A2.684 2.684 0 0 1 7 10.583v-.169a4.386 4.386 0 0 0-1.292-3.121 4.414 4.414 0 0 0-1.572-1.015l2.143-2.142a4.4 4.4 0 0 0 1.013 1.571A4.384 4.384 0 0 0 10.414 7h.172a2.4 2.4 0 0 1 .848.152z"></path>
</symbol>
<g id="toolbar-theme" class="theme">
	<use href="#icon"/>
</g>
<g id="default-theme" class="theme">
	<use href="#icon"/>
</g>
<g id="toolbar" class="prefer-color-scheme">
	<use href="#icon"/>
</g>
<g id="default" class="prefer-color-scheme">
	<use href="#icon"/>
</g>
</svg>
